<svg xmlns="http://www.w3.org/2000/svg" width="840" height="380" viewBox="0 0 840 380">
  <style>
    text { font-family: 'SF Mono','Cascadia Code','Fira Code',Menlo,Consolas,'Liberation Mono',monospace; }
    @keyframes fadeInOut {
      0% { opacity: 0 }
      4% { opacity: 1 }
      16% { opacity: 1 }
      20% { opacity: 0 }
      100% { opacity: 0 }
    }
    .frame { opacity: 0; }
    .frame-0 { animation: fadeInOut 25s 0s infinite; animation-fill-mode: backwards; }
    .frame-1 { animation: fadeInOut 25s 5s infinite; }
    .frame-2 { animation: fadeInOut 25s 10s infinite; }
    .frame-3 { animation: fadeInOut 25s 15s infinite; }
    .frame-4 { animation: fadeInOut 25s 20s infinite; }
  </style>

  <defs>
    <clipPath id="vr-clip-preview0">
      <rect x="0" y="36" width="840" height="304"/>
    </clipPath>
  </defs>

  <!-- Background -->
  <rect width="840" height="380" rx="12" fill="#0d1117"/>

  <!-- Header bar -->
  <path d="M0,12 Q0,0 12,0 H828 Q840,0 840,12 V36 H0 Z" fill="#161b22"/>
  <circle cx="24" cy="18" r="5" fill="#ff7b72" opacity="0.9"/>
  <circle cx="42" cy="18" r="5" fill="#d29922" opacity="0.9"/>
  <circle cx="60" cy="18" r="5" fill="#3fb950" opacity="0.9"/>
  <text x="420" y="23" text-anchor="middle" fill="#7d8590" font-size="12" letter-spacing="0.5">vibe-replay</text>

  <!-- Footer bar -->
  <path d="M0,340 H840 V368 Q840,380 828,380 H12 Q0,380 0,368 Z" fill="#161b22"/>
  <line x1="0" y1="340" x2="840" y2="340" stroke="#30363d" stroke-width="1"/>
  <text x="40" y="364" fill="#7d8590" font-size="11">12 min · 47 steps</text>
  <text x="800" y="364" text-anchor="end" fill="#7d8590" font-size="11">View full replay →</text>

  <!-- Animated content frames (clipped to content area) -->
  <g clip-path="url(#vr-clip-preview0)">
  <g class="frame frame-0">
    <text x="40" y="60" fill="#7d8590" font-size="11" letter-spacing="1.5">TASK</text>
    <line x1="40" y1="70" x2="800" y2="70" stroke="#30363d" stroke-width="1"/>
    <text x="40" y="98" fill="#58a6ff" font-size="15" font-weight="600">Add authentication middleware with JWT support</text>
    <text x="40" y="122" fill="#58a6ff" font-size="15" font-weight="600">and refresh token rotation</text>
    <text x="40" y="158" fill="#bc8cff" font-size="13">Claude Opus</text>
    <text x="40" y="182" fill="#7d8590" font-size="13">12 min  ·  47 steps</text>
    <text x="40" y="206" fill="#7d8590" font-size="13">~/Code/my-project</text>
  </g>

  <g class="frame frame-1">
    <text x="40" y="60" fill="#7d8590" font-size="11" letter-spacing="1.5">STEP 1 OF 4</text>
    <line x1="40" y1="70" x2="800" y2="70" stroke="#30363d" stroke-width="1"/>
    <text x="40" y="98" fill="#58a6ff" font-size="15" font-weight="600">Add authentication middleware with JWT support</text>
    <text x="40" y="122" fill="#58a6ff" font-size="15" font-weight="600">and refresh token rotation</text>
    <text x="40" y="158" fill="#7d8590" font-size="13">    auth.ts, routes.ts, config.ts</text>
    <text x="40" y="182" fill="#e6edf3" font-size="13">    Edit auth.ts</text>
    <text x="40" y="206" fill="#3fb950" font-size="13">    + middleware.ts</text>
    <text x="40" y="230" fill="#3fb950" font-size="13">    + auth.test.ts</text>
    <text x="40" y="254" fill="#e6edf3" font-size="13">    $ pnpm test  [ok]</text>
  </g>

  <g class="frame frame-2">
    <text x="40" y="60" fill="#7d8590" font-size="11" letter-spacing="1.5">STEP 3 OF 4</text>
    <line x1="40" y1="70" x2="800" y2="70" stroke="#30363d" stroke-width="1"/>
    <text x="40" y="98" fill="#58a6ff" font-size="15" font-weight="600">The login endpoint returns 500 when the</text>
    <text x="40" y="122" fill="#58a6ff" font-size="15" font-weight="600">refresh token is expired</text>
    <text x="40" y="158" fill="#7d8590" font-size="13">    auth.ts, middleware.ts</text>
    <text x="40" y="182" fill="#f85149" font-size="13">    $ pnpm test  [fail]</text>
    <text x="40" y="206" fill="#e6edf3" font-size="13">    Edit auth.ts</text>
    <text x="40" y="230" fill="#e6edf3" font-size="13">    Edit middleware.ts</text>
    <text x="40" y="254" fill="#3fb950" font-size="13">    $ pnpm test  [ok]</text>
  </g>

  <g class="frame frame-3">
    <text x="40" y="60" fill="#7d8590" font-size="11" letter-spacing="1.5">STEP 4 OF 4</text>
    <line x1="40" y1="70" x2="800" y2="70" stroke="#30363d" stroke-width="1"/>
    <text x="40" y="98" fill="#58a6ff" font-size="15" font-weight="600">Add rate limiting to the login endpoint</text>
    <text x="40" y="158" fill="#e6edf3" font-size="13">    Edit auth.ts</text>
    <text x="40" y="182" fill="#3fb950" font-size="13">    + rateLimiter.ts</text>
    <text x="40" y="206" fill="#e6edf3" font-size="13">    $ pnpm test  [ok]</text>
  </g>

  <g class="frame frame-4">
    <text x="40" y="60" fill="#7d8590" font-size="11" letter-spacing="1.5">COMPLETE</text>
    <line x1="40" y1="70" x2="800" y2="70" stroke="#30363d" stroke-width="1"/>
    <text x="40" y="98" fill="#58a6ff" font-size="15" font-weight="600">Add auth middleware</text>
    <text x="40" y="134" fill="#3fb950" font-size="13">6 files changed  ·  47 steps  ·  4 prompts  ·  12 min</text>
    <text x="40" y="158" fill="#7d8590" font-size="13">32 tool calls</text>
    <text x="40" y="194" fill="#58a6ff" font-size="13" font-weight="600">View full replay  →</text>
    <text x="40" y="218" fill="#7d8590" font-size="13">vibe-replay.com</text>
  </g>
  </g>
</svg>